<svg width="578" height="407" viewBox="0 0 578 407" fill="none" xmlns="http://www.w3.org/2000/svg">
<g clip-path="url(#clip0_29_107)">
<path d="M295.196 406.137C312.581 406.137 326.673 392.056 326.673 374.686C326.673 357.315 312.581 343.234 295.196 343.234C277.812 343.234 263.719 357.315 263.719 374.686C263.719 392.056 277.812 406.137 295.196 406.137Z" fill="#4255FF"/>
<path d="M483.243 404.371C500.853 399.086 519.574 393.576 533.54 381.014C546.02 369.788 554.445 352.646 549.275 335.811C544.116 319.01 528.661 307.808 512.706 302.236C503.656 299.076 494.188 297.323 484.724 295.945C474.436 294.448 464.102 293.222 453.774 292.041C411.951 287.262 369.972 284.342 327.835 283.282C307.043 282.759 286.255 282.771 265.461 283.073C246.889 283.342 227.331 283.336 210.102 275.449C196.705 269.316 184.546 258.158 180.813 243.496C176.504 226.57 184.452 209.334 195.853 197.076C201.863 190.614 208.887 185.176 216.133 180.176C223.994 174.751 232.128 169.71 240.439 165.005C256.808 155.742 273.921 147.859 291.601 141.437C300.323 138.269 309.174 135.535 318.102 133.013C325.641 130.883 333.203 128.751 340.489 125.849C354.574 120.24 367.971 110.739 371.552 95.1622C374.946 80.3994 369.223 64.3732 359.19 53.4062C347.583 40.7182 330.081 35.1562 313.302 34.2562C294.465 33.2459 276.062 37.9566 258.356 43.9351C239.472 50.3116 220.995 57.6434 201.712 62.8083C182.59 67.925 163.098 71.5452 143.414 73.6363C133.777 74.6615 123.85 75.8192 114.156 75.0343C106.032 74.3765 97.9493 71.9892 91.962 66.2281C86.8281 61.2883 83.7698 54.4993 84.8212 47.3349C85.0122 46.0337 86.9906 46.5869 86.8008 47.8802C85.5209 56.6013 91.4538 64.6376 98.7649 68.7541C107.215 73.5117 117.497 73.5182 126.904 72.9741C147.302 71.7431 167.562 68.8168 187.473 64.2253C207.039 59.7602 225.905 53.377 244.751 46.5583C262.649 40.0823 280.947 33.7617 300.069 32.359C316.66 31.1419 334.113 33.5571 348.567 42.2206C361.27 49.8346 370.611 62.5324 373.587 77.1034C376.496 91.3419 372.468 105.673 361.681 115.609C350.512 125.897 335.199 130.295 320.927 134.346C302.826 139.484 285.113 145.49 267.969 153.288C250.59 161.169 233.923 170.532 218.152 181.271C202.93 191.666 187.906 204.744 183.092 223.288C180.849 231.925 181.263 241.087 185.016 249.245C188.352 256.5 193.848 262.602 200.249 267.309C215.523 278.539 234.773 280.844 253.223 281.074C273.944 281.331 294.666 280.632 315.394 280.972C357.636 281.665 399.793 284.234 441.862 288.68C452.404 289.795 462.932 291.027 473.448 292.377C482.905 293.591 492.395 294.798 501.694 296.954C518.228 300.789 534.316 308.162 544.593 322.169C549.154 328.24 551.98 335.435 552.768 342.986C553.488 350.865 551.557 358.759 547.992 365.768C540.1 381.283 525.319 391.151 509.622 397.634C501.214 401.106 492.493 403.737 483.789 406.349C482.521 406.729 481.979 404.75 483.243 404.371Z" fill="#4255FF" fill-opacity="0.5"/>
<path d="M86.1468 63.9291C95.2169 63.9291 102.57 56.5822 102.57 47.5195C102.57 38.4567 95.2169 31.1099 86.1468 31.1099C77.0766 31.1099 69.7239 38.4567 69.7239 47.5195C69.7239 56.5822 77.0766 63.9291 86.1468 63.9291Z" fill="#4255FF" fill-opacity="0.5"/>
<path d="M200.08 95.0389C209.151 95.0389 216.503 87.6921 216.503 78.6293C216.503 69.5666 209.151 62.2197 200.08 62.2197C191.01 62.2197 183.658 69.5666 183.658 78.6293C183.658 87.6921 191.01 95.0389 200.08 95.0389Z" fill="#4255FF" fill-opacity="0.5"/>
<path d="M296.565 32.8192C305.635 32.8192 312.988 25.4724 312.988 16.4096C312.988 7.34683 305.635 0 296.565 0C287.495 0 280.142 7.34683 280.142 16.4096C280.142 25.4724 287.495 32.8192 296.565 32.8192Z" fill="#4255FF" fill-opacity="0.5"/>
<path d="M356.782 102.56C365.852 102.56 373.205 95.2131 373.205 86.1503C373.205 77.0875 365.852 69.7407 356.782 69.7407C347.712 69.7407 340.359 77.0875 340.359 86.1503C340.359 95.2131 347.712 102.56 356.782 102.56Z" fill="#4255FF" fill-opacity="0.5"/>
<path d="M275.352 183.241C284.422 183.241 291.775 175.894 291.775 166.831C291.775 157.768 284.422 150.421 275.352 150.421C266.282 150.421 258.929 157.768 258.929 166.831C258.929 175.894 266.282 183.241 275.352 183.241Z" fill="#4255FF" fill-opacity="0.5"/>
<path d="M172.025 222.213C181.095 222.213 188.448 214.866 188.448 205.804C188.448 196.741 181.095 189.394 172.025 189.394C162.955 189.394 155.602 196.741 155.602 205.804C155.602 214.866 162.955 222.213 172.025 222.213Z" fill="#4255FF" fill-opacity="0.5"/>
<path d="M281.511 283.065C290.581 283.065 297.933 275.718 297.933 266.656C297.933 257.593 290.581 250.246 281.511 250.246C272.44 250.246 265.088 257.593 265.088 266.656C265.088 275.718 272.44 283.065 281.511 283.065Z" fill="#4255FF" fill-opacity="0.5"/>
<path d="M399.208 317.252C408.278 317.252 415.631 309.905 415.631 300.843C415.631 291.78 408.278 284.433 399.208 284.433C390.138 284.433 382.785 291.78 382.785 300.843C382.785 309.905 390.138 317.252 399.208 317.252Z" fill="#4255FF" fill-opacity="0.5"/>
<path d="M536.75 309.731C545.82 309.731 553.172 302.384 553.172 293.322C553.172 284.259 545.82 276.912 536.75 276.912C527.679 276.912 520.327 284.259 520.327 293.322C520.327 302.384 527.679 309.731 536.75 309.731Z" fill="#4255FF" fill-opacity="0.5"/>
<path d="M291.824 46.496C242.63 46.8432 202.35 86.7883 201.651 135.939C201.644 136.393 201.641 139.584 201.642 143.757C201.642 149.876 204.075 155.745 208.405 160.072C212.735 164.399 218.608 166.83 224.732 166.831C227.768 166.83 230.774 166.232 233.578 165.07C236.383 163.908 238.93 162.205 241.076 160.059C243.221 157.913 244.922 155.366 246.082 152.563C247.242 149.759 247.837 146.755 247.835 143.722C247.832 140.883 247.831 138.918 247.831 138.798C247.829 131.201 249.807 123.736 253.569 117.135C257.331 110.534 262.748 105.025 269.287 101.15C275.826 97.2754 283.262 95.1683 290.863 95.036C298.464 94.9037 305.969 96.7509 312.639 100.396C319.309 104.041 324.915 109.357 328.905 115.824C332.894 122.29 335.131 129.682 335.394 137.274C335.657 144.866 333.938 152.395 330.405 159.121C326.873 165.848 321.649 171.54 315.247 175.637L315.255 175.646C315.255 175.646 282.39 196.787 272.37 225.788L272.379 225.79C270.617 231.732 269.724 237.896 269.728 244.093C269.728 246.64 269.878 268.927 270.168 287.016C270.269 293.257 272.822 299.209 277.276 303.586C281.729 307.964 287.727 310.416 293.974 310.415C297.113 310.415 300.221 309.794 303.12 308.589C306.018 307.384 308.649 305.619 310.862 303.394C313.075 301.169 314.825 298.529 316.013 295.626C317.201 292.723 317.803 289.613 317.783 286.477C317.683 269.91 317.628 250.621 317.628 249.221C317.628 231.413 334.821 213.67 348.944 202.099C365.206 188.776 376.909 170.618 381.609 150.136C382.65 145.919 383.223 141.601 383.32 137.259C383.32 125.285 380.948 113.428 376.342 102.373C371.736 91.3185 364.986 81.2836 356.481 72.8469C347.976 64.4101 337.885 57.7383 326.788 53.2158C315.691 48.6933 303.808 46.4095 291.824 46.496Z" fill="#4255FF"/>
<path d="M577.185 407H0.814732C0.599051 406.999 0.392422 406.913 0.240132 406.761C0.0878431 406.608 0.00231934 406.401 0.00231934 406.186C0.00231934 405.97 0.0878431 405.763 0.240132 405.611C0.392422 405.458 0.599051 405.372 0.814732 405.372H577.185C577.401 405.372 577.609 405.457 577.761 405.61C577.914 405.763 578 405.97 578 406.186C578 406.402 577.914 406.609 577.761 406.761C577.609 406.914 577.401 407 577.185 407Z" fill="#00284D"/>
<path d="M430.039 186.656C441.377 186.656 450.568 177.473 450.568 166.144C450.568 154.816 441.377 145.632 430.039 145.632C418.701 145.632 409.51 154.816 409.51 166.144C409.51 177.473 418.701 186.656 430.039 186.656Z" fill="#2F2E41"/>
<path d="M392.105 398.021H383.716L379.724 365.688H392.107L392.105 398.021Z" fill="#A0616A"/>
<path d="M377.723 395.625H393.902V405.804H367.536C367.536 404.467 367.8 403.144 368.312 401.909C368.824 400.674 369.574 399.552 370.52 398.607C371.466 397.662 372.589 396.912 373.825 396.4C375.061 395.889 376.385 395.625 377.723 395.625Z" fill="#2F2E41"/>
<path d="M457.112 398.021H448.723L444.731 365.688H457.114L457.112 398.021Z" fill="#A0616A"/>
<path d="M442.73 395.625H458.909V405.804H432.543C432.543 404.467 432.807 403.144 433.319 401.909C433.831 400.674 434.581 399.552 435.527 398.607C436.473 397.662 437.596 396.912 438.832 396.4C440.068 395.889 441.393 395.625 442.73 395.625Z" fill="#2F2E41"/>
<path d="M426.919 186.776C436.201 186.776 443.726 179.258 443.726 169.983C443.726 160.709 436.201 153.19 426.919 153.19C417.637 153.19 410.113 160.709 410.113 169.983C410.113 179.258 417.637 186.776 426.919 186.776Z" fill="#A0616A"/>
<path d="M436.937 240.952L444.457 223.687C446.283 219.637 446.807 215.121 445.955 210.761C445.103 206.401 442.918 202.413 439.701 199.347C439.041 198.694 438.339 198.084 437.6 197.521C433.89 194.62 429.317 193.04 424.606 193.029C421.438 193.041 418.311 193.736 415.437 195.066C415.19 195.176 414.951 195.292 414.704 195.408C414.232 195.634 413.767 195.88 413.315 196.133C410.369 197.823 407.862 200.181 405.996 203.017C404.13 205.854 402.957 209.088 402.572 212.461L399.253 240.247C398.418 242.429 368.638 321.195 379.053 381.329C379.164 381.971 379.477 382.561 379.948 383.012C380.418 383.464 381.02 383.753 381.667 383.838L392.226 385.274C392.997 385.379 393.779 385.189 394.415 384.741C395.051 384.293 395.494 383.621 395.654 382.86L413.37 298.481C413.48 297.957 413.763 297.485 414.174 297.14C414.585 296.795 415.099 296.598 415.635 296.58C416.171 296.562 416.697 296.724 417.13 297.04C417.563 297.356 417.877 297.808 418.023 298.324L443.054 387.059C443.233 387.703 443.618 388.272 444.15 388.677C444.683 389.082 445.334 389.301 446.004 389.301C446.203 389.3 446.402 389.282 446.599 389.247L459.497 386.765C460.247 386.625 460.918 386.21 461.377 385.601C461.837 384.993 462.053 384.235 461.982 383.476C460.086 362.355 450.013 256.561 436.937 240.952Z" fill="#2F2E41"/>
<path d="M361.604 183.958C361.487 184.957 361.591 185.969 361.908 186.923C362.225 187.876 362.748 188.749 363.439 189.48C364.13 190.21 364.973 190.78 365.909 191.15C366.844 191.519 367.849 191.679 368.854 191.619L378.248 214.177L385.354 203.651L375.344 183.843C375.13 182.164 374.307 180.622 373.032 179.509C371.756 178.396 370.116 177.789 368.423 177.803C366.729 177.817 365.1 178.452 363.843 179.586C362.586 180.721 361.79 182.276 361.604 183.958Z" fill="#A0616A"/>
<path d="M425.987 263.666C426.986 263.546 427.947 263.21 428.801 262.679C429.656 262.149 430.384 261.438 430.933 260.596C431.483 259.754 431.842 258.802 431.983 257.807C432.125 256.812 432.047 255.798 431.754 254.836L451.519 240.452L439.619 235.999L422.674 250.342C421.09 250.94 419.781 252.099 418.994 253.598C418.208 255.097 417.999 256.832 418.408 258.474C418.816 260.117 419.813 261.552 421.21 262.509C422.607 263.466 424.307 263.877 425.987 263.666Z" fill="#A0616A"/>
<path d="M393.766 229.215C393.008 229.215 392.252 229.14 391.509 228.993C389.711 228.651 388.025 227.872 386.599 226.726C385.173 225.579 384.052 224.1 383.333 222.418L370.171 206.382C369.893 206.043 369.69 205.649 369.577 205.225C369.464 204.802 369.443 204.359 369.515 203.926C369.587 203.494 369.75 203.082 369.995 202.717C370.239 202.353 370.558 202.045 370.932 201.815L380.296 196.023C380.641 195.809 381.026 195.666 381.427 195.601C381.829 195.537 382.239 195.552 382.635 195.647C383.03 195.742 383.403 195.914 383.731 196.153C384.06 196.392 384.338 196.694 384.549 197.042L393.825 212.312L411.59 199.194C413.005 198.453 414.639 198.245 416.194 198.608C417.749 198.972 419.121 199.882 420.06 201.173C420.999 202.464 421.442 204.049 421.308 205.639C421.174 207.229 420.471 208.718 419.329 209.834L401.598 225.995C399.515 228.059 396.699 229.216 393.766 229.215Z" fill="#2F2E41"/>
<path d="M441.768 253.332C441.744 253.332 441.72 253.332 441.696 253.332C441.264 253.321 440.839 253.22 440.449 253.035C440.059 252.85 439.712 252.585 439.43 252.258L431.105 242.554C430.822 242.223 430.612 241.836 430.489 241.419C430.366 241.001 430.333 240.562 430.393 240.131C430.452 239.699 430.603 239.286 430.834 238.917C431.065 238.548 431.373 238.233 431.735 237.991L447.324 227.607L433.202 210.642C432.38 209.273 432.079 207.655 432.352 206.083C432.626 204.511 433.457 203.09 434.693 202.079C435.929 201.068 437.488 200.536 439.084 200.579C440.681 200.621 442.209 201.237 443.389 202.312L460.553 219.072C461.904 220.305 462.935 221.848 463.558 223.567C464.181 225.285 464.378 227.13 464.13 228.941C463.883 230.753 463.199 232.477 462.138 233.967C461.077 235.456 459.67 236.666 458.038 237.492L444.009 252.366C443.721 252.671 443.374 252.914 442.988 253.08C442.603 253.246 442.188 253.332 441.768 253.332Z" fill="#2F2E41"/>
<path d="M422.646 217.574C422.512 217.574 422.379 217.565 422.246 217.548C421.667 217.478 421.119 217.243 420.669 216.871C420.219 216.499 419.885 216.006 419.707 215.45L413.451 196.285C413.295 195.801 413.319 195.276 413.519 194.808C413.72 194.34 414.083 193.96 414.542 193.739L414.745 193.643C414.929 193.556 415.111 193.469 415.298 193.386C418.215 192.034 421.39 191.329 424.606 191.319C428.78 191.327 432.862 192.552 436.349 194.845C436.817 195.156 437.143 195.638 437.259 196.187C437.374 196.736 437.269 197.309 436.966 197.781L425.23 216.152C424.955 216.588 424.574 216.947 424.122 217.196C423.67 217.445 423.162 217.575 422.646 217.574Z" fill="#E6E6E6"/>
<path d="M446.224 156.987C449.934 156.987 452.941 153.982 452.941 150.275C452.941 146.568 449.934 143.563 446.224 143.563C442.514 143.563 439.507 146.568 439.507 150.275C439.507 153.982 442.514 156.987 446.224 156.987Z" fill="#2F2E41"/>
<path d="M423.196 142.897C418.478 142.897 413.952 144.77 410.616 148.104C407.279 151.438 405.405 155.96 405.405 160.674V168.196H414.663L419.091 160.675L420.419 168.196H448.515L440.988 160.674C440.988 155.96 439.113 151.438 435.777 148.104C432.44 144.77 427.915 142.897 423.196 142.897Z" fill="#2F2E41"/>
<path d="M449.677 145.678C450.419 143.357 451.957 141.372 454.02 140.072C456.083 138.772 458.538 138.24 460.954 138.57C465.235 139.285 468.62 142.723 470.636 146.564C472.653 150.404 473.584 154.702 474.94 158.821C476.296 162.941 478.219 167.083 481.641 169.75C485.064 172.417 490.316 173.14 493.678 170.397C493.294 173.256 492.02 175.922 490.036 178.018C488.053 180.114 485.46 181.534 482.624 182.077C479.789 182.62 476.854 182.258 474.236 181.043C471.617 179.829 469.447 177.822 468.033 175.307C466.259 172.154 465.801 168.458 465.275 164.88C464.749 161.301 464.066 157.598 461.948 154.664C459.83 151.731 455.866 149.815 452.502 151.151L449.677 145.678Z" fill="#2F2E41"/>
<path d="M231.252 155.917C225.128 155.917 219.255 153.485 214.925 149.158C210.595 144.831 208.162 138.963 208.162 132.844C208.161 128.671 208.164 125.48 208.171 125.026C208.365 110.732 211.968 96.6894 218.681 84.0645C207.652 99.1496 201.588 117.286 201.328 135.966C201.321 136.42 201.318 139.61 201.319 143.784C201.319 149.903 203.752 155.771 208.082 160.098C212.412 164.425 218.285 166.856 224.409 166.857C229.442 166.855 234.336 165.212 238.348 162.177C242.361 159.143 245.272 154.882 246.64 150.044C242.412 153.832 236.931 155.924 231.252 155.917Z" fill="#191970"/>
<path d="M293.39 95.1136C300.47 95.4514 307.361 97.5011 313.474 101.087C319.586 104.672 324.736 109.686 328.482 115.699C332.228 121.711 334.457 128.542 334.979 135.605C335.5 142.668 334.298 149.752 331.477 156.248C335.558 151.458 338.558 145.846 340.272 139.792C341.986 133.739 342.374 127.387 341.408 121.171C340.443 114.954 338.147 109.019 334.678 103.769C331.209 98.5196 326.647 94.0791 321.305 90.7505C315.962 87.4219 309.964 85.2835 303.72 84.481C297.475 83.6785 291.131 84.2309 285.119 86.1005C279.108 87.97 273.57 91.1128 268.885 95.3145C264.199 99.5162 260.475 104.678 257.967 110.448C262.302 105.353 267.75 101.32 273.892 98.6612C280.034 96.0024 286.704 94.7887 293.39 95.1136Z" fill="#191970"/>
<path d="M300.494 299.501C294.247 299.503 288.249 297.05 283.795 292.673C279.342 288.295 276.789 282.344 276.687 276.102C276.398 258.013 276.248 235.726 276.248 233.179C276.244 226.983 277.137 220.818 278.898 214.877L278.89 214.875C279.93 211.893 281.187 208.99 282.65 206.191C278.16 212.17 274.586 218.784 272.047 225.815L272.056 225.817C270.294 231.758 269.401 237.922 269.405 244.119C269.405 246.666 269.555 268.953 269.845 287.042C269.946 293.283 272.499 299.235 276.953 303.612C281.406 307.99 287.404 310.442 293.651 310.441C298.802 310.44 303.814 308.77 307.935 305.683C312.056 302.595 315.064 298.255 316.507 293.314C312.13 297.303 306.418 299.51 300.494 299.501Z" fill="#191970"/>
<path d="M86.5903 398.333L94.979 398.332L98.9704 366L86.5883 366L86.5903 398.333Z" fill="#FFB8B8"/>
<path d="M111.159 406.115L84.7927 406.116L84.7922 395.938L100.971 395.937C103.673 395.937 106.264 397.009 108.175 398.918C110.085 400.827 111.159 403.416 111.159 406.115Z" fill="#2F2E41"/>
<path d="M56.4817 398.333L64.8703 398.332L68.8618 366L56.4796 366L56.4817 398.333Z" fill="#FFB8B8"/>
<path d="M81.05 406.115L54.684 406.116L54.6835 395.938L70.8627 395.937C73.5644 395.937 76.1556 397.009 78.0661 398.918C79.9765 400.827 81.0499 403.416 81.05 406.115Z" fill="#2F2E41"/>
<path d="M63.8127 388.389L55.6184 387.958C55.1958 387.936 54.7819 387.83 54.4006 387.647C54.0192 387.464 53.6781 387.207 53.3969 386.891C53.1156 386.575 52.8999 386.206 52.7623 385.807C52.6246 385.407 52.5677 384.984 52.5949 384.562L62.3888 276.213L107.491 288.374L111.836 287.189L98.2474 383.107C98.1317 383.828 97.7731 384.489 97.2309 384.979C96.6886 385.47 95.9952 385.76 95.2652 385.804L86.4318 386.215C85.9901 386.24 85.5482 386.172 85.1338 386.017C84.7195 385.863 84.3418 385.623 84.0247 385.315C83.7075 385.007 83.4578 384.637 83.2913 384.227C83.1248 383.818 83.0451 383.378 83.0573 382.936L84.6578 325.368C84.6653 325.102 84.5727 324.843 84.3984 324.641C84.224 324.44 83.9804 324.311 83.7157 324.28C83.451 324.249 83.1843 324.319 82.9681 324.475C82.752 324.63 82.6021 324.861 82.548 325.122L67.1126 385.846C66.9669 386.567 66.5756 387.214 66.0055 387.679C65.4354 388.143 64.7216 388.396 63.986 388.393C63.9286 388.393 63.8708 388.392 63.8127 388.389Z" fill="#2F2E41"/>
<path d="M88.0965 187.561C97.3786 187.561 104.903 180.043 104.903 170.768C104.903 161.494 97.3786 153.975 88.0965 153.975C78.8143 153.975 71.2897 161.494 71.2897 170.768C71.2897 180.043 78.8143 187.561 88.0965 187.561Z" fill="#FFB8B8"/>
<path d="M60.1143 220.106L61.9623 259.945L62.6303 274.439C62.6569 275.07 62.8713 275.679 63.2461 276.188C63.6208 276.696 64.1389 277.081 64.734 277.294L108.074 292.981C108.424 293.111 108.795 293.176 109.169 293.173C109.595 293.175 110.018 293.091 110.412 292.926C110.806 292.762 111.162 292.519 111.46 292.214C111.758 291.908 111.991 291.546 112.146 291.148C112.3 290.75 112.373 290.326 112.36 289.899L110.583 218.267C110.466 212.389 108.301 206.737 104.461 202.284C100.62 197.831 95.3456 194.857 89.5455 193.873C89.1263 193.809 88.6998 193.745 88.2733 193.688C84.6768 193.242 81.0261 193.589 77.5781 194.704C74.1302 195.82 70.9687 197.676 68.3161 200.144C65.5694 202.668 63.4111 205.764 61.9938 209.214C60.5766 212.663 59.935 216.381 60.1143 220.106Z" fill="#CCCCCC"/>
<path d="M128.777 285.032C127.752 284.714 126.816 284.161 126.043 283.417C125.269 282.674 124.681 281.76 124.324 280.748C123.967 279.737 123.852 278.656 123.987 277.592C124.122 276.528 124.505 275.511 125.104 274.621L110.406 255.093L123.089 254.309L135.101 272.973C136.387 273.966 137.282 275.38 137.629 276.967C137.976 278.554 137.752 280.212 136.998 281.651C136.243 283.089 135.006 284.217 133.503 284.835C132 285.453 130.327 285.523 128.777 285.032Z" fill="#FFB8B8"/>
<path d="M118.444 271.087C118.054 270.929 117.7 270.696 117.402 270.4C117.103 270.105 116.866 269.753 116.705 269.365L94.5627 216.653C94.1282 215.621 93.9015 214.514 93.8956 213.394C93.8897 212.275 94.1047 211.165 94.5282 210.128C94.9518 209.092 95.5756 208.149 96.3641 207.353C97.1526 206.557 98.0902 205.925 99.1234 205.492C100.157 205.058 101.265 204.833 102.386 204.828C103.506 204.823 104.617 205.038 105.654 205.462C106.691 205.886 107.634 206.51 108.43 207.299C109.225 208.087 109.858 209.025 110.291 210.057L132.433 262.77C132.76 263.552 132.764 264.431 132.443 265.215C132.122 265.999 131.503 266.624 130.722 266.953L120.892 271.076C120.505 271.239 120.089 271.324 119.669 271.327C119.249 271.329 118.832 271.247 118.444 271.087Z" fill="#CCCCCC"/>
<path d="M82.6929 269.228L103.96 228.539C104.37 227.757 105.074 227.169 105.918 226.905C106.761 226.64 107.675 226.721 108.459 227.129L139.328 243.237C140.112 243.647 140.7 244.351 140.965 245.194C141.229 246.036 141.149 246.95 140.74 247.733L119.473 288.421C119.063 289.204 118.359 289.792 117.516 290.056C116.672 290.321 115.758 290.24 114.974 289.832L84.1049 273.723C83.3218 273.313 82.7333 272.61 82.4686 271.767C82.2039 270.924 82.2846 270.011 82.6929 269.228Z" fill="#00284D"/>
<path d="M96.9554 250.639C96.5773 249.635 95.9697 248.734 95.181 248.006C94.3923 247.279 93.4443 246.746 92.4128 246.449C91.3813 246.153 90.2948 246.102 89.2399 246.3C88.185 246.498 87.1911 246.939 86.3373 247.589L65.9603 234.083L65.9257 246.779L85.2813 257.659C86.3497 258.883 87.8154 259.692 89.4212 259.944C91.027 260.196 92.6704 259.875 94.0631 259.038C95.4559 258.2 96.509 256.9 97.0379 255.364C97.5667 253.828 97.5375 252.155 96.9554 250.639Z" fill="#FFB8B8"/>
<path d="M71.192 253.494L54.5387 240.313C52.7372 239.708 51.1093 238.676 49.7949 237.305C48.4804 235.933 47.5187 234.264 46.9923 232.439C46.4658 230.615 46.3903 228.69 46.7723 226.829C47.1542 224.969 47.9823 223.23 49.1853 221.76L64.306 201.959C65.3568 200.676 66.8346 199.814 68.4692 199.53C70.1039 199.246 71.7862 199.559 73.2087 200.412C74.6312 201.266 75.6988 202.602 76.2164 204.177C76.734 205.752 76.667 207.461 76.0276 208.991L64.0637 228.546L81.6457 236.878C82.0545 237.072 82.4176 237.35 82.7109 237.694C83.0041 238.039 83.2209 238.441 83.3469 238.876C83.4729 239.31 83.5053 239.766 83.4418 240.214C83.3783 240.661 83.2205 241.09 82.9788 241.472L75.8815 252.695C75.6416 253.074 75.3248 253.398 74.9515 253.647C74.5782 253.896 74.1568 254.063 73.7146 254.139C73.6971 254.142 73.6794 254.145 73.6617 254.147C73.2272 254.213 72.7839 254.189 72.3591 254.076C71.9343 253.964 71.5371 253.766 71.192 253.494Z" fill="#CCCCCC"/>
<path d="M75.3968 182.013C75.3247 181.802 75.3018 181.578 75.3299 181.357C75.3581 181.136 75.4364 180.924 75.559 180.738C75.6817 180.552 75.8453 180.397 76.0373 180.283C76.2294 180.17 76.4448 180.103 76.6671 180.086C77.1223 180.11 77.5678 180.227 77.9766 180.429C78.3854 180.63 78.7491 180.912 79.0457 181.258C79.654 181.959 80.3621 182.566 81.1473 183.061C81.9603 183.471 83.063 183.412 83.5264 182.632C83.9617 181.899 83.6635 180.917 83.4 180.065C82.7295 177.899 82.3543 175.652 82.2847 173.385C82.2088 170.855 82.566 168.215 83.9678 166.242C85.777 163.695 89.012 162.728 92.0735 162.798C95.135 162.868 98.1468 163.813 101.179 164.409C102.226 164.615 103.457 164.721 104.157 163.91C104.902 163.048 104.628 161.653 104.311 160.489C103.49 157.469 102.618 154.346 100.709 151.907C98.644 149.372 95.6951 147.713 92.4555 147.264C89.3453 146.879 86.188 147.237 83.2434 148.309C78.4457 149.82 74.2242 152.758 71.1432 156.731C67.9672 160.957 66.5949 166.267 67.3262 171.5C68.0407 176.058 70.458 180.176 74.0909 183.024L75.3968 182.013Z" fill="#2F2E41"/>
<path d="M288.261 398.466C283.79 396.52 279.832 393.563 276.7 389.827C273.569 386.091 271.349 381.678 270.216 376.938C269.084 372.198 269.069 367.26 270.173 362.513C271.278 357.767 273.471 353.342 276.58 349.587C272.975 352.217 269.971 355.583 267.768 359.461C265.565 363.34 264.212 367.642 263.8 372.083C263.388 376.524 263.926 381.002 265.378 385.219C266.83 389.436 269.163 393.297 272.223 396.544C275.282 399.791 278.998 402.351 283.124 404.054C287.249 405.757 291.69 406.564 296.151 406.42C300.612 406.277 304.992 405.188 308.999 403.224C313.007 401.26 316.551 398.467 319.395 395.031C314.958 398.271 309.749 400.293 304.287 400.896C298.824 401.499 293.299 400.661 288.261 398.466Z" fill="#191970"/>
</g>
<defs>
<clipPath id="clip0_29_107">
<rect width="578" height="407" fill="white"/>
</clipPath>
</defs>
</svg>
