<svg width="151" height="151" viewBox="0 0 151 151" fill="none" xmlns="http://www.w3.org/2000/svg">
<path fill-rule="evenodd" clip-rule="evenodd" d="M46.9755 40.5311C57.9231 60.8275 55.3596 85.8997 40.5311 103.561C60.8275 92.613 85.8997 95.1765 103.561 110.005C92.613 89.7086 95.1765 64.6364 110.005 46.9755C89.7086 57.9231 64.6364 55.3596 46.9755 40.5311ZM42.2351 33.1727C61.076 54.681 93.3327 57.9791 116.136 40.7286L117.363 42.2351C95.8551 61.076 92.557 93.3326 109.807 116.136L108.301 117.363C89.4601 95.855 57.2034 92.557 34.3997 109.807L33.1727 108.301C54.6811 89.4601 57.9791 57.2034 40.7286 34.3997L42.2351 33.1727Z" fill="#191970" fill-opacity="0.5"/>
</svg>
